<?xml version="1.0" encoding="UTF-8"?>
<svg id="Layer_1" data-name="Layer 1" xmlns="http://www.w3.org/2000/svg" viewBox="0 0 987.58 893.91">
  <defs>
    <style>
      .cls-1 {
        fill: #393e46;
      }

      .cls-2 {
        fill: #c6dc6a;
      }
    </style>
  </defs>
  <path class="cls-1" d="m985.95,454.86c2.8,36.15,1.24,71.77-3.77,107.65-6.53,46.8-19.32,91.47-38.72,134.46-12.78,28.33-27.4,55.5-46.35,80.21-6.92,9.01-34.45,15.57-45.9,11.05-2.22-.88-1.17-1.75-.27-2.78,25.91-29.89,45.25-63.79,62.32-99.31,14.99-31.21,24.99-64.02,32.42-97.51,5.14-23.2,8.12-47,8.29-70.94.12-16.68.09-33.37.12-50.04.17-1.54.34-3.08.5-4.63-.47-4.19-.95-8.39-1.42-12.57l.16-.3-.33-.18c-.21-1.29-.41-2.57-.62-3.85-.65-4.09-1.31-8.19-1.96-12.3.36-15.56-4.1-30.38-7.48-45.3-11.02-48.57-30.31-93.89-56.1-136.32-22.98-37.81-51.55-71.21-84.27-100.98-22.5-20.47-47.22-38.08-73.31-53.62-30.41-18.12-62.44-33.22-96.3-43.31-35.75-10.65-72.31-17.77-109.92-19.53-20.26-.94-40.41-1.19-60.64-.6-9.01.27-13.96,1.97-13.62,13.32.95,31.87.37,63.78.27,95.67-.01,3.29.97,5.18,3.9,7,38.19,23.64,69.36,54.18,92.42,93.02,17.21,28.97,29.77,59.64,36.34,92.62,3.95,19.87,3.48,40.13,3.2,60.31-.04,2.52-1.17,2.91-3.29,2.9-15.62-.05-31.32.88-46.84-.38-8.19-.66-5.82-10.44-5.2-14.65,2.48-16.75.61-32.7-4.17-48.66-2.74-9.13-4.47-18.59-7.54-27.6-8.55-25.08-22.59-47.03-39.57-67.19-6.59-9.06-14.19-17.11-23.55-23.38-23.37-20.53-50.42-34.61-79.72-44.3-10.38-3.43-21.5-4.61-32.27-6.81-.39-.05-.78-.09-1.17-.14-32.22-4.11-64.05-1.82-95.45,6.2-6.79,1.74-13.28,4.67-19.9,7.05-3.12,1.58-6.26,3.16-9.39,4.74-.97.54-1.94,1.07-2.9,1.61-.4.1-.8.21-1.21.32-.9.55-1.8,1.1-2.69,1.65-.4.1-.8.21-1.21.32-.89.56-1.79,1.12-2.67,1.68-.4.1-.81.2-1.22.3-.93.61-1.85,1.22-2.77,1.82-2.11.98-4.23,1.97-6.35,2.95-30.59,18.97-56.42,43.27-75.15,73.81-14.79,24.11-25.11,50.45-29.26,79.08-2.83,19.51-4.86,38.84-2.82,58.45,4.96,47.71,22.1,90.4,54.07,126.43,15.68,17.69,33.43,33.31,54.07,45.24,1.8.79,3.62,1.59,5.43,2.39.92.6,1.85,1.21,2.76,1.81.4.11.81.22,1.21.33.9.55,1.79,1.11,2.68,1.66.4.11.8.23,1.2.34.9.55,1.8,1.09,2.69,1.64.4.11.8.22,1.21.34l2.73,1.56c.4.09.82.17,1.23.26.96.55,1.92,1.09,2.87,1.64,1.82.95,3.64,1.9,5.47,2.86,8.69,1.19,12.23,4.92,12.12,14.9-.65,58.72-.35,117.44-.24,176.16,0,3.44-.54,4.87-4.42,4.86-43.6-.12-87.19.09-130.79-.19-11.63-.07-13.33-11.73-18.15-18.73-20.42-29.67-37.2-61.42-50.29-95.01-8.29-21.3-14.65-43.15-20.11-65.4C3.57,565.12-.93,520.7.52,475.8c1.53-47.81,10.63-94.38,26.08-139.77,16.23-47.71,38.9-91.94,69.05-132.28,10.59-14.17,21.92-27.8,32.91-41.67.5-.35,1.02-.7,1.53-1.06.47-.53.93-1.07,1.38-1.6.21.04.42.08.63.11-.03-.21-.07-.42-.11-.62.46-.51.91-1.02,1.37-1.53.2.05.41.09.62.14-.04-.21-.08-.42-.13-.63l1.41-1.53c.21.06.41.1.62.15-.05-.21-.1-.41-.15-.62.49-.5.98-1.01,1.46-1.51.2.05.41.1.61.15-.05-.2-.1-.41-.15-.61.5-.51.99-1.02,1.48-1.52.2.05.4.1.6.16-.05-.21-.1-.41-.15-.61.5-.51,1-1.02,1.5-1.52.19.05.39.11.59.16l-.15-.6,1.5-1.53c.2.06.4.11.6.17-.06-.2-.11-.4-.16-.6.5-.51,1.01-1.02,1.51-1.53.2.06.4.12.6.17-.06-.2-.11-.4-.17-.59.52-.51,1.03-1.02,1.53-1.52.2.05.4.11.59.16-.05-.19-.1-.39-.15-.59.51-.5,1.02-1.01,1.52-1.51.2.06.4.11.6.16l-.15-.6c.51-.5,1.01-1,1.52-1.5.19.05.4.11.6.16-.05-.2-.1-.4-.16-.61.51-.49,1.01-.99,1.51-1.49.2.06.41.11.61.16-.05-.2-.1-.41-.16-.61.51-.49,1.02-.97,1.53-1.45.2.05.41.09.62.14-.05-.2-.1-.41-.14-.62.51-.47,1.02-.94,1.52-1.4.21.04.42.09.63.13-.04-.21-.08-.42-.13-.63.51-.46,1.01-.92,1.51-1.38l.63.12c-.04-.21-.07-.42-.11-.63.54-.46,1.07-.92,1.6-1.38.48-.37.96-.74,1.44-1.12,35.26-32.29,74.84-58.01,117.57-79.45,32.77-16.45,67.29-27.57,102.54-36.2,23.69-5.8,48.18-8.4,72.63-10.83,22.92-2.29,45.77-3.34,68.47-1.08,25.12,2.49,50.25,5.26,75.06,10.91,35.98,8.18,70.92,18.94,104.25,34.82,38.1,18.15,73.55,40.49,106.13,67.35,6.01,4.96,11.84,10.13,17.75,15.19.79.74,1.58,1.49,2.37,2.23.54.48,1.09.97,1.63,1.45-.05.2-.09.41-.13.62.21-.04.42-.08.63-.13.51.47,1.02.94,1.52,1.41-.05.2-.09.41-.14.61.21-.04.41-.09.62-.14.51.49,1.02.97,1.53,1.45-.06.2-.11.41-.17.61.21-.05.41-.1.62-.15.5.5,1,1,1.51,1.49-.06.2-.11.4-.16.6l.6-.15c.51.5,1.02,1,1.52,1.5-.05.19-.1.39-.15.59l.6-.15c.5.5,1.01,1.01,1.52,1.51-.06.19-.11.39-.16.59.2-.06.4-.11.59-.17.52.51,1.03,1.02,1.54,1.52-.06.19-.11.39-.17.59.2-.05.4-.11.6-.17.51.52,1.02,1.03,1.52,1.53-.06.2-.11.4-.16.6.19-.06.39-.12.59-.17.51.51,1.02,1.02,1.52,1.53-.06.19-.11.39-.17.6.2-.06.4-.11.6-.17.5.51,1,1.03,1.5,1.53-.06.2-.11.4-.17.61.2-.05.41-.11.61-.16.49.51.99,1.02,1.48,1.52-.06.2-.11.41-.16.61.21-.05.41-.09.62-.14.49.5.97,1,1.46,1.5-.06.21-.11.42-.16.62.21-.04.42-.09.63-.14.47.51.94,1.02,1.41,1.52-.05.21-.09.42-.14.63.21-.05.42-.09.63-.13.46.51.92,1.02,1.37,1.52-.04.2-.08.41-.12.62.21-.03.42-.07.63-.1.46.53.92,1.07,1.38,1.6.37.47.75.95,1.12,1.43,24.96,28.3,47.09,58.52,65.65,91.51,23.15,41.16,39.89,84.74,50.27,130.6,5.23,23.07,9.12,46.47,10.96,70.3Z"/>
  <path class="cls-1" d="m925.68,886.89c.12,5.22-1.37,6.48-6.51,6.48-280.03-.13-560.07-.25-840.11.29-14.68.03-19.41-3.07-17.48-17.71,1.41-10.72.49-21.78.18-32.67-.13-4.58.98-6.05,5.87-6.03,70.94.17,141.89.05,212.83.23,5.53.02,6.84-1.82,6.81-7.01-.13-27,.13-54.01.09-81.01,0-3.64,1.71-4.39,4.73-4.38,23.11.06,46.21.14,69.31.07,3.8-.02,4.53,1.61,4.51,5.02-.11,27.34.02,54.67-.16,82.01-.02,4.07,1.1,5.32,5.2,5.27,17.57-.19,35.15-.17,52.72.01,3.67.04,4.86-1.17,4.86-4.71-.03-68.02.3-136.04-.35-204.05-.08-8.24,1.96-8.48,8.44-8.38,22.29.34,44.58.21,66.88.05,3.74-.03,4.98.84,4.97,4.84-.13,68.83-.06,137.66-.21,206.48-.01,4.4.9,5.88,5.54,5.78,14.47-.3,29.2-1.77,43.38.33,16.57,2.45,16.86-6.96,16.91-18.1.03-6.25-.25-12.51-.25-18.77-.01-94.7.03-189.4-.06-284.1-.01-10.5-.81-21-1.24-31.5.36,0,.73-.03,1.09-.04-.2-.48-.4-.95-.6-1.42,16.2-.31,32.39-.83,48.59-.9,31.97-.14,31.98-.04,31.97,31.71-.02,106.41-.03,212.82-.17,319.23,0,3.14,1.21,3.48,3.68,3.48,18.87-.04,37.75-.06,56.63.03,3.25.01,4.06-1.34,4.07-4.41.11-145.08.47-290.17.25-435.25-.03-16.43,12.27-9.18,17.77-9.53,19.36-1.25,38.88-.14,58.32.55,5.23.19,3.45,5.36,3.46,8.25.16,61.18.12,122.36.12,183.54,0,81.52.49,163.05-.52,244.56-.15,12.57,3.81,12.53,13.26,12.42,36.77-.45,73.54-.13,110.32-.28,3.74-.01,4.96.69,4.88,4.71-.28,14.97-.35,29.95.02,44.91Z"/>
  <path class="cls-2" d="m379.98,376.64c31.52,14.41,48.4,62.4,33.37,92.68-14.85,29.92-37.81,46.81-69.53,53.42-4.11.85-4.88,2.79-4.82,6.57.19,13.18-.41,26.38.17,39.53.3,6.58-2.59,8.23-8.06,8.24-7.65.02-15.3,0-22.94.01q-27.14,0-27.14-26.78c0-24.97-.17-24.39-25.05-31.87-29.36-8.83-47.05-30.07-56.56-58.26-4.34-12.86,6.36-17.94,15.48-21.17,5.25-1.87,11.1-2.83,16.11-5.5,16.03-8.58,23.1,4.46,31.28,13.23,15.4,16.5,57.31,17.82,72.42,10.81,6.78-3.15,10.51-8.3,8.92-15.84-1.86-8.8-8.91-12.61-16.7-14.85-26.76-7.69-54.79-10.87-80.42-22.57-34.35-15.66-51.92-55.24-43.97-92.03,8.83-40.91,36.33-59.01,73.93-67.04,3.17-.68,4.67-2.07,4.6-5.54-.18-9.11,1.11-18.41-.3-27.3-2.32-14.69,4.86-18.44,17.37-18,10.99.4,21.99.84,32.99.94,6.55.05,8.79,3.09,8.55,9.37-.33,8.77.72,17.67-.35,26.33-1.37,11.13,3.72,14.57,13.64,17.3,30.78,8.49,52.25,27.14,60.16,59.33,2.29,9.32-2.97,14.15-9.91,17.46-8.52,4.07-17.47,7.28-26.35,10.54-8.11,2.98-14.88,1.38-20.38-5.94-15.13-20.14-35.79-24.5-59.15-19.35-20.65,4.55-27.69,13.94-20.81,27.97,4.9,10.01,15.57,12.33,25.27,15.15,26.08,7.6,53.02,11.66,78.18,23.16Z"/>
</svg>